<?xml version="1.0" standalone="no"?>
<!DOCTYPE svg PUBLIC "-//W3C//DTD SVG 20010904//EN"
 "http://www.w3.org/TR/2001/REC-SVG-20010904/DTD/svg10.dtd">
<svg version="1.0" xmlns="http://www.w3.org/2000/svg"
 width="626.000000pt" height="626.000000pt" viewBox="0 0 626.000000 626.000000"
 preserveAspectRatio="xMidYMid meet">
<metadata>
Created by potrace 1.14, written by Peter Selinger 2001-2017
</metadata>
<g transform="translate(0.000000,626.000000) scale(0.100000,-0.100000)"
fill="#000000" stroke="none">
<path d="M3255 5524 c-30 -8 -70 -11 -100 -8 -41 5 -73 -1 -175 -34 -69 -22
-145 -44 -170 -48 -84 -12 -95 -15 -225 -51 -71 -19 -133 -40 -136 -45 -4 -6
-11 -8 -17 -4 -6 3 -13 2 -16 -2 -3 -5 -26 -15 -51 -22 -25 -7 -45 -16 -45
-20 0 -20 -82 -28 -326 -29 l-170 -1 1 -34 c0 -19 4 -38 7 -42 4 -3 53 -6 110
-5 57 1 109 -3 115 -7 9 -6 -3 -19 -37 -45 -27 -20 -54 -37 -59 -37 -6 0 -15
-8 -20 -17 -6 -10 -11 -14 -11 -10 0 8 -7 3 -65 -48 -19 -16 -49 -41 -66 -55
-53 -41 -249 -242 -249 -256 0 -3 -6 -12 -12 -19 -32 -36 -43 -50 -43 -57 0
-4 -9 -14 -20 -22 -11 -9 -16 -16 -11 -16 5 0 -3 -11 -18 -25 -14 -13 -26 -27
-26 -30 0 -4 -15 -23 -34 -43 -34 -35 -36 -36 -112 -36 -53 -1 -79 -5 -81 -13
-4 -10 13 -13 61 -13 70 0 88 -10 56 -33 -11 -7 -17 -17 -13 -20 3 -4 1 -7 -5
-7 -7 0 -12 -6 -12 -13 0 -8 -11 -24 -25 -37 -14 -13 -25 -30 -25 -38 0 -7
-14 -35 -32 -60 -17 -26 -40 -60 -51 -76 -12 -17 -14 -26 -6 -21 12 7 12 5 1
-6 -9 -10 -47 -16 -125 -19 l-112 -5 -3 -27 -3 -28 78 -1 c43 -1 84 -1 92 1
10 1 12 -7 7 -32 -3 -18 -7 -39 -8 -45 -1 -7 -5 -13 -9 -13 -7 0 -24 -59 -21
-72 1 -5 -2 -8 -7 -8 -5 0 -11 -10 -14 -22 -3 -13 -13 -48 -22 -78 -9 -30 -17
-59 -19 -65 -1 -5 -7 -28 -11 -50 -12 -55 -12 -55 -15 -57 -2 -4 -9 -37 -14
-73 -7 -56 -13 -62 -67 -61 -27 1 -55 -2 -61 -5 -13 -8 -18 -103 -8 -134 4
-11 18 -22 31 -25 14 -4 25 -14 27 -27 2 -13 13 -24 28 -27 28 -8 33 -41 7
-54 -10 -5 -43 -7 -73 -6 -30 1 -61 -3 -69 -10 -10 -7 -13 -7 -8 0 4 8 -21 11
-83 11 l-89 -1 2 -100 2 -101 37 3 c33 3 39 0 48 -22 9 -26 10 -26 129 -26
127 0 138 -4 137 -50 -1 -25 -2 -25 -96 -25 -130 0 -124 -19 8 -23 l102 -3 0
-31 c0 -19 9 -41 22 -55 12 -13 17 -23 11 -23 -12 0 -9 -38 8 -98 13 -46 33
-61 76 -56 13 1 21 -2 18 -6 -3 -5 -1 -11 4 -15 5 -3 8 -14 6 -25 -6 -30 -25
-61 -35 -55 -5 3 -12 0 -16 -6 -4 -7 -3 -9 3 -6 6 4 10 -7 11 -26 0 -17 6 -33
11 -35 6 -2 11 -15 11 -28 0 -13 5 -24 10 -24 6 0 10 -5 10 -10 0 -6 7 -27 17
-48 9 -20 17 -41 17 -45 1 -4 8 -12 16 -17 8 -5 11 -10 6 -10 -5 0 -3 -7 4
-15 7 -8 9 -15 4 -15 -5 0 0 -7 10 -15 11 -8 16 -15 12 -15 -8 0 54 -93 66
-98 4 -2 8 -10 8 -18 0 -8 6 -14 14 -14 8 0 18 -9 21 -20 3 -11 11 -20 16 -20
5 0 9 -4 9 -10 0 -5 8 -19 17 -30 10 -11 16 -23 15 -27 -2 -3 2 -9 10 -14 29
-18 -10 -31 -90 -30 -75 1 -80 0 -84 -21 -6 -32 -1 -164 6 -176 3 -6 48 -9
106 -7 71 3 98 1 94 -7 -5 -7 -2 -8 7 -2 18 11 169 14 190 3 9 -5 20 -4 26 2
8 8 25 -3 58 -35 27 -25 52 -43 58 -39 6 3 7 1 3 -5 -4 -7 7 -18 26 -28 17 -9
38 -23 46 -30 7 -8 18 -12 23 -9 5 4 9 2 9 -3 0 -5 10 -13 23 -17 12 -4 24 -8
27 -9 3 -2 19 -8 35 -15 55 -22 90 -41 77 -41 -7 0 -11 -4 -8 -8 3 -5 6 -32 7
-61 2 -28 6 -54 11 -57 5 -3 5 -11 1 -17 -14 -22 -14 -49 -1 -41 9 6 9 3 0 -9
-8 -9 -21 -19 -31 -22 -9 -3 -17 -14 -18 -25 -1 -11 2 -18 8 -15 5 4 9 1 9 -6
0 -7 3 -10 6 -6 3 3 11 1 18 -5 9 -9 7 -17 -10 -35 -21 -22 -41 -32 -30 -14 4
5 -5 4 -18 -2 -13 -7 -23 -14 -21 -18 3 -3 -8 -5 -23 -4 -15 1 -30 -3 -34 -9
-5 -8 -8 -7 -8 1 0 6 -9 10 -20 8 -11 -2 -22 1 -26 6 -4 6 -11 6 -20 -2 -8 -6
-14 -8 -14 -3 0 5 -5 2 -10 -6 -5 -8 -10 -10 -10 -4 0 8 -31 11 -93 11 l-93 0
2 -31 c2 -48 3 -49 17 -37 8 6 16 8 19 5 3 -3 82 -5 176 -5 l170 0 12 -28 c6
-16 23 -35 38 -42 15 -8 30 -18 34 -24 5 -6 8 -4 8 5 0 13 1 13 10 0 5 -8 10
-11 10 -7 0 4 9 3 20 -3 17 -9 19 -8 13 7 -6 15 -4 16 8 6 12 -10 18 -10 29 0
10 10 12 9 7 -4 -4 -12 0 -15 18 -14 12 2 31 8 42 14 11 5 23 7 27 4 11 -11
36 -12 36 -1 0 7 5 7 13 1 15 -11 57 -10 76 1 9 6 12 5 8 -1 -5 -7 8 -11 34
-10 39 1 41 2 35 30 -4 20 -2 27 7 24 6 -2 22 -1 33 4 12 4 25 5 28 2 8 -8
101 -7 115 1 6 4 11 4 11 -1 0 -4 73 -7 162 -5 90 1 421 2 736 2 506 0 577 2
607 16 43 20 66 55 71 107 2 22 6 42 9 45 3 3 0 11 -6 18 -7 8 -7 14 1 19 5 3
10 28 10 56 0 27 4 49 10 49 5 0 7 8 3 18 -3 9 -3 14 2 10 10 -9 60 25 102 68
18 19 37 34 42 34 6 0 11 5 11 10 0 14 49 60 63 60 6 0 8 3 4 6 -3 3 2 14 11
23 37 38 62 72 62 82 0 5 5 7 10 4 9 -6 14 8 8 20 -2 2 6 11 17 19 11 9 17 16
13 16 -4 0 4 11 17 25 53 52 30 65 -117 65 l-98 0 0 40 0 40 133 1 c72 1 139
2 147 3 34 3 65 38 71 81 1 6 11 19 23 30 12 11 46 52 76 90 29 39 57 72 61
75 9 7 33 62 31 72 -1 5 1 7 6 5 4 -1 8 2 9 7 1 5 5 12 10 15 5 3 16 18 26 34
17 26 20 27 112 27 l95 0 0 80 0 80 -27 0 c-48 0 -72 11 -70 31 2 23 -11 21
127 23 110 2 115 3 118 24 4 24 -5 25 -145 22 l-63 -1 0 30 c0 17 4 31 8 31 5
0 9 6 10 13 2 22 7 42 16 55 4 7 5 16 2 19 -3 3 -1 12 5 20 6 7 8 13 4 13 -4
0 -2 7 5 15 7 8 10 15 7 15 -3 0 -1 17 5 38 11 45 18 85 22 133 1 19 5 39 8
45 3 5 5 28 4 52 0 23 1 42 4 42 3 0 6 11 6 25 1 15 -3 25 -12 25 -13 0 -16
11 -16 60 0 43 3 50 18 50 15 0 16 13 10 128 -3 70 -9 139 -11 152 -3 14 -7
54 -10 90 -8 82 -23 142 -35 135 -6 -4 -10 -2 -10 4 0 5 -3 18 -6 28 -4 13 -3
14 4 5 13 -19 24 25 12 49 -6 10 -9 28 -8 42 2 24 4 24 91 25 48 1 92 4 97 7
13 8 9 73 -4 78 -6 2 -54 3 -106 3 -102 -1 -119 6 -120 51 0 12 -4 25 -10 28
-5 3 -10 15 -10 26 0 11 -4 17 -10 14 -5 -3 -10 -2 -10 3 0 12 -36 22 -45 13
-11 -10 -49 -7 -61 4 -20 19 -63 108 -58 117 3 5 16 8 27 6 12 -1 27 1 34 5 6
4 15 3 18 -3 12 -20 35 10 29 36 -4 16 -2 24 7 25 8 0 73 2 144 3 72 2 133 4
136 5 8 2 4 39 -4 48 -4 4 -78 7 -165 7 -86 1 -163 5 -169 9 -7 5 -13 17 -13
28 0 18 6 22 41 22 12 0 15 12 14 58 0 32 -3 60 -6 63 -2 3 -35 6 -73 7 -67 2
-68 2 -84 38 -9 20 -29 55 -45 79 -15 23 -25 42 -22 42 21 0 -65 56 -88 58 -5
0 -17 11 -28 23 -10 12 -19 18 -19 13 0 -5 -9 5 -20 21 -11 17 -20 27 -20 23
0 -4 -11 4 -25 18 -14 14 -25 29 -25 35 0 6 -4 7 -10 4 -5 -3 -10 0 -10 6 0 7
-24 35 -52 61 -29 27 -48 48 -43 47 6 -1 32 -1 58 0 73 2 56 26 -19 27 -32 1
-66 2 -75 3 -9 0 -32 16 -52 35 -19 18 -58 44 -86 57 -28 13 -51 30 -51 37 0
6 -4 12 -8 12 -5 0 -23 12 -41 27 -34 28 -113 63 -143 63 -9 0 -59 20 -111 45
-53 25 -99 45 -104 45 -15 0 -45 42 -36 50 4 5 17 10 28 12 22 4 34 53 17 70
-5 5 -87 9 -183 10 -154 0 -178 2 -205 19 -37 22 -96 24 -169 3z"/>
<path d="M2193 5508 c1 -7 7 -16 12 -20 6 -4 98 -8 206 -8 170 0 198 2 203 16
3 9 6 18 6 20 0 2 -97 4 -215 4 -167 0 -214 -3 -212 -12z"/>
<path d="M2033 5413 c-7 -3 -13 -9 -13 -14 0 -5 56 -9 125 -9 77 0 125 4 125
10 0 6 -3 11 -7 12 -20 3 -219 4 -230 1z"/>
<path d="M4485 5138 c-5 -16 -8 -39 -6 -54 1 -6 17 -10 39 -8 20 2 47 3 58 3
17 1 21 6 18 27 -1 15 -9 31 -16 35 -20 13 -88 11 -93 -3z"/>
<path d="M1088 4712 l-98 -3 0 -29 0 -30 189 0 189 0 4 29 4 29 -64 1 c-35 0
-67 3 -72 6 -5 3 -11 1 -15 -5 -3 -5 -14 -7 -23 -3 -9 5 -61 7 -114 5z"/>
<path d="M1124 4528 l1 -33 63 -3 62 -3 0 36 0 35 -63 0 -63 0 0 -32z"/>
<path d="M5094 4532 c-15 -2 -23 -12 -26 -30 -8 -59 -3 -63 75 -60 l72 3 1 35
c1 19 -1 40 -5 45 -6 10 -71 14 -117 7z"/>
<path d="M4976 2162 c-2 -4 -4 -39 -5 -77 l-1 -71 50 0 c34 -1 47 2 43 10 -4
6 0 5 9 -2 13 -10 22 -11 37 -3 12 7 22 7 26 1 3 -5 12 -7 20 -4 18 7 18 110
1 133 -9 12 -8 13 3 6 9 -5 12 -4 8 2 -7 12 -184 16 -191 5z"/>
<path d="M1725 972 c-50 -4 -65 -17 -30 -26 17 -4 33 -2 43 6 10 8 13 9 9 1
-4 -6 -3 -14 2 -17 5 -4 12 -2 15 3 3 4 28 7 56 5 36 -2 50 1 50 11 0 14 -72
23 -145 17z"/>
</g>
</svg>
