<?xml version="1.0" standalone="no"?>
<!DOCTYPE svg PUBLIC "-//W3C//DTD SVG 20010904//EN"
 "http://www.w3.org/TR/2001/REC-SVG-20010904/DTD/svg10.dtd">
<svg version="1.0" xmlns="http://www.w3.org/2000/svg"
 width="700.000000pt" height="700.000000pt" viewBox="0 0 700.000000 700.000000"
 preserveAspectRatio="xMidYMid meet">
<metadata>
Created by potrace 1.14, written by Peter Selinger 2001-2017
</metadata>
<g transform="translate(0.000000,700.000000) scale(0.100000,-0.100000)"
fill="#000000" stroke="none">
<path d="M1449 6996 c-2 -2 -52 -6 -112 -10 -310 -17 -500 -66 -682 -174 -261
-155 -478 -417 -565 -682 -17 -51 -32 -104 -35 -119 -8 -48 -25 -156 -30 -191
-17 -122 -20 -489 -20 -2330 0 -2177 1 -2241 45 -2470 64 -336 296 -651 620
-840 68 -40 222 -104 271 -114 194 -36 238 -42 399 -54 140 -9 4183 -9 4330 1
63 4 123 10 135 12 11 2 43 7 70 10 195 21 355 78 519 185 326 213 531 538
572 905 3 28 8 61 10 75 16 93 19 493 19 2300 0 1780 -4 2264 -20 2313 -2 7
-6 35 -9 62 -34 295 -147 521 -375 745 -222 219 -471 330 -795 356 -34 3 -79
8 -101 11 -42 6 -4239 15 -4246 9z m1321 -1761 c0 -151 -3 -275 -7 -276 -5 -1
-44 -2 -88 -4 -176 -8 -283 -90 -311 -240 -4 -21 -8 -242 -9 -490 -1 -247 -6
-472 -10 -500 -23 -157 -111 -272 -248 -326 l-40 -16 65 -30 c120 -56 192
-153 219 -294 8 -43 13 -213 14 -524 2 -327 6 -473 15 -505 27 -98 71 -154
150 -189 53 -23 91 -30 183 -32 l67 -2 0 -279 0 -280 -222 6 c-228 5 -296 14
-428 57 -258 83 -431 311 -466 614 -4 33 -7 278 -8 545 -2 536 -1 526 -67 588
-37 35 -79 45 -194 47 -38 1 -74 2 -80 3 -6 1 -10 101 -10 277 l0 275 96 0
c108 0 151 11 193 49 60 55 60 50 62 588 1 408 6 571 19 613 1 3 5 23 9 45 5
22 20 69 34 105 95 244 304 397 597 437 22 3 42 7 43 8 2 2 98 4 213 5 l209 1
0 -276z m1900 265 c101 -15 120 -20 200 -46 140 -47 271 -143 346 -254 51 -75
96 -193 120 -310 4 -19 9 -267 11 -550 2 -283 8 -531 13 -551 25 -94 89 -128
238 -129 l102 0 -2 -277 -3 -278 -96 -1 c-139 -2 -191 -24 -229 -101 -18 -35
-19 -70 -20 -518 0 -264 -2 -491 -4 -505 -3 -14 -7 -50 -10 -80 -9 -74 -43
-194 -73 -255 -102 -204 -283 -326 -564 -380 -18 -3 -133 -8 -254 -11 l-221
-5 1 278 0 278 45 2 c182 6 260 40 321 140 42 68 46 116 47 573 2 463 3 488
27 583 30 117 95 195 211 252 40 20 60 34 48 35 -32 0 -135 66 -177 112 -46
51 -78 119 -92 198 -2 14 -7 41 -10 60 -3 19 -6 237 -7 485 -1 491 -2 505 -61
594 -49 74 -162 120 -289 116 -32 -1 -59 1 -59 4 -1 3 -2 129 -3 279 l-1 272
190 0 c104 0 219 -5 255 -10z"/>
</g>
</svg>
