<?xml version="1.0" standalone="no"?>
<!DOCTYPE svg PUBLIC "-//W3C//DTD SVG 20010904//EN"
 "http://www.w3.org/TR/2001/REC-SVG-20010904/DTD/svg10.dtd">
<svg version="1.0" xmlns="http://www.w3.org/2000/svg"
 width="700.000000pt" height="700.000000pt" viewBox="0 0 700.000000 700.000000"
 preserveAspectRatio="xMidYMid meet">
<metadata>
Created by potrace 1.14, written by Peter Selinger 2001-2017
</metadata>
<g transform="translate(0.000000,700.000000) scale(0.100000,-0.100000)"
fill="#000000" stroke="none">
<path d="M1525 6993 c-286 -8 -520 -39 -661 -87 -341 -116 -654 -429 -770
-770 -33 -95 -60 -244 -76 -411 -19 -204 -19 -4233 0 -4445 16 -170 43 -319
76 -416 116 -341 429 -654 770 -770 38 -13 115 -33 170 -43 235 -45 276 -46
2466 -46 2148 0 2212 1 2444 41 255 44 470 157 661 349 194 193 305 406 349
665 40 240 41 279 41 2435 0 2196 -1 2236 -46 2471 -48 251 -155 451 -344 639
-191 192 -407 306 -661 349 -223 38 -271 39 -2319 41 -1100 1 -2045 0 -2100
-2z m1245 -1763 l0 -280 -84 0 c-150 0 -248 -53 -297 -162 -24 -53 -24 -53
-29 -548 -5 -430 -8 -505 -24 -568 -31 -125 -112 -221 -228 -271 l-43 -18 62
-31 c114 -58 168 -123 206 -251 19 -61 21 -106 26 -571 6 -485 7 -507 27 -550
53 -114 132 -161 285 -168 l99 -5 0 -278 0 -279 -173 0 c-95 0 -211 5 -257 10
-374 46 -598 238 -675 580 -15 64 -18 150 -21 585 -3 281 -7 525 -10 543 -5
34 -51 94 -88 115 -11 6 -73 14 -136 17 l-115 5 -3 278 -2 277 92 0 c108 0
156 11 197 46 59 49 60 59 65 624 4 552 6 578 59 722 36 100 84 172 163 247
80 77 146 117 253 155 116 42 215 54 444 55 l207 1 0 -280z m2020 251 c283
-72 459 -245 532 -525 20 -76 22 -113 27 -621 5 -467 8 -545 22 -575 34 -75
91 -99 232 -100 l97 0 0 -280 0 -280 -104 0 c-112 0 -147 -8 -184 -43 -58 -54
-57 -36 -63 -627 -5 -521 -6 -548 -27 -625 -89 -323 -302 -498 -662 -545 -41
-5 -157 -10 -257 -10 l-183 0 0 279 0 278 98 5 c148 7 226 49 277 148 40 79
45 140 45 594 0 459 5 525 47 618 32 71 112 149 188 185 l56 25 -59 28 c-107
51 -171 124 -208 240 -16 48 -18 115 -24 560 -6 490 -6 507 -28 560 -25 64
-88 131 -147 156 -24 10 -80 20 -140 23 l-100 6 -3 279 -2 278 242 -5 c205 -4
256 -8 328 -26z"/>
</g>
</svg>
